{
  "accessors": [
    {
      "bufferView": 2,
      "componentType": 5126,
      "count": 1663,
      "max": [
        -244.20767211914063,
        454.6086120605469,
        210.1837158203125
      ],
      "min": [
        -449.01641845703125,
        0.0,
        21.87706756591797
      ],
      "type": "VEC3"
    },
    {
      "bufferView": 2,
      "byteOffset": 19956,
      "componentType": 5126,
      "count": 1663,
      "max": [
        0.9850101470947266,
        1.0,
        0.9935210347175598
      ],
      "min": [
        -0.9810918569564819,
        -0.32762280106544495,
        -0.9934483170509338
      ],
      "type": "VEC3"
    },
    {
      "bufferView": 1,
      "componentType": 5126,
      "count": 1663,
      "max": [
        0.37115949392318726,
        0.22914808988571167
      ],
      "min": [
        0.2767849862575531,
        0.18371666967868805
      ],
      "type": "VEC2"
    },
    {
      "bufferView": 0,
      "componentType": 5125,
      "count": 2247,
      "type": "SCALAR"
    },
    {
      "bufferView": 2,
      "byteOffset": 39912,
      "componentType": 5126,
      "count": 2716,
      "max": [
        290.05499267578125,
        804.4820556640625,
        161.7352294921875
      ],
      "min": [
        -1.144256591796875,
        0.0,
        -140.51220703125
      ],
      "type": "VEC3"
    },
    {
      "bufferView": 2,
      "byteOffset": 72504,
      "componentType": 5126,
      "count": 2716,
      "max": [
        0.9847884178161621,
        1.0,
        0.989694356918335
      ],
      "min": [
        -0.984534502029419,
        -0.37047189474105835,
        -0.990014374256134
      ],
      "type": "VEC3"
    },
    {
      "bufferView": 1,
      "byteOffset": 13304,
      "componentType": 5126,
      "count": 2716,
      "max": [
        0.35332393646240234,
        0.23958128690719604
      ],
      "min": [
        0.28926414251327515,
        0.1676020324230194
      ],
      "type": "VEC2"
    },
    {
      "bufferView": 0,
      "byteOffset": 8988,
      "componentType": 5125,
      "count": 3636,
      "type": "SCALAR"
    },
    {
      "bufferView": 2,
      "byteOffset": 105096,
      "componentType": 5126,
      "count": 2225,
      "max": [
        1271.43408203125,
        294.11041259765625,
        12.40863037109375
      ],
      "min": [
        1128.047607421875,
        0.0,
        -140.97103881835938
      ],
      "type": "VEC3"
    },
    {
      "bufferView": 2,
      "byteOffset": 131796,
      "componentType": 5126,
      "count": 2225,
      "max": [
        0.984765350818634,
        1.0,
        0.9890953302383423
      ],
      "min": [
        -0.9836293458938599,
        -0.48438015580177307,
        -0.9898545145988464
      ],
      "type": "VEC3"
    },
    {
      "bufferView": 1,
      "byteOffset": 35032,
      "componentType": 5126,
      "count": 2225,
      "max": [
        0.3556707501411438,
        0.21845528483390808
      ],
      "min": [
        0.27844884991645813,
        0.19016499817371368
      ],
      "type": "VEC2"
    },
    {
      "bufferView": 0,
      "byteOffset": 23532,
      "componentType": 5125,
      "count": 2979,
      "type": "SCALAR"
    },
    {
      "bufferView": 2,
      "byteOffset": 158496,
      "componentType": 5126,
      "count": 1642,
      "max": [
        1153.338623046875,
        810.5507202148438,
        114.93769836425781
      ],
      "min": [
        865.4988403320313,
        0.0,
        -89.1229476928711
      ],
      "type": "VEC3"
    },
    {
      "bufferView": 2,
      "byteOffset": 178200,
      "componentType": 5126,
      "count": 1642,
      "max": [
        0.9835095405578613,
        0.9737825989723206,
        0.9901695847511292
      ],
      "min": [
        -0.9869081377983093,
        -0.6356582641601563,
        -0.9903439879417419
      ],
      "type": "VEC3"
    },
    {
      "bufferView": 1,
      "byteOffset": 52832,
      "componentType": 5126,
      "count": 1642,
      "max": [
        0.35332393646240234,
        0.24011725187301636
      ],
      "min": [
        0.2859363555908203,
        0.16853442788124084
      ],
      "type": "VEC2"
    },
    {
      "bufferView": 0,
      "byteOffset": 35448,
      "componentType": 5125,
      "count": 2226,
      "type": "SCALAR"
    },
    {
      "bufferView": 2,
      "byteOffset": 197904,
      "componentType": 5126,
      "count": 3063,
      "max": [
        781.3864135742188,
        941.2387084960938,
        305.64239501953125
      ],
      "min": [
        369.4381103515625,
        0.0,
        -129.80947875976563
      ],
      "type": "VEC3"
    },
    {
      "bufferView": 2,
      "byteOffset": 234660,
      "componentType": 5126,
      "count": 3063,
      "max": [
        0.984755277633667,
        1.0,
        0.9901383519172668
      ],
      "min": [
        -0.9846398234367371,
        -0.11438504606485367,
        -0.9898892045021057
      ],
      "type": "VEC3"
    },
    {
      "bufferView": 1,
      "byteOffset": 65968,
      "componentType": 5126,
      "count": 3063,
      "max": [
        0.3622417151927948,
        0.2233726978302002
      ],
      "min": [
        0.29009607434272766,
        0.13610494136810303
      ],
      "type": "VEC2"
    },
    {
      "bufferView": 0,
      "byteOffset": 44352,
      "componentType": 5125,
      "count": 4095,
      "type": "SCALAR"
    },
    {
      "bufferView": 2,
      "byteOffset": 271416,
      "componentType": 5126,
      "count": 1600,
      "max": [
        -45.12342834472656,
        1227.509521484375,
        120.48918914794922
      ],
      "min": [
        -248.42166137695313,
        0.0,
        -95.75383758544922
      ],
      "type": "VEC3"
    },
    {
      "bufferView": 2,
      "byteOffset": 290616,
      "componentType": 5126,
      "count": 1600,
      "max": [
        0.9909386038780212,
        1.0,
        0.9901903867721558
      ],
      "min": [
        -0.984587550163269,
        -0.11100577563047409,
        -0.990502119064331
      ],
      "type": "VEC3"
    },
    {
      "bufferView": 1,
      "byteOffset": 90472,
      "componentType": 5126,
      "count": 1600,
      "max": [
        0.35332393646240234,
        0.2835960388183594
      ],
      "min": [
        0.27345719933509827,
        0.17518998682498932
      ],
      "type": "VEC2"
    },
    {
      "bufferView": 0,
      "byteOffset": 60732,
      "componentType": 5125,
      "count": 2148,
      "type": "SCALAR"
    },
    {
      "bufferView": 2,
      "byteOffset": 309816,
      "componentType": 5126,
      "count": 1638,
      "max": [
        -1080.5150146484375,
        680.668212890625,
        62.065757751464844
      ],
      "min": [
        -1283.419677734375,
        0.0,
        -136.08226013183594
      ],
      "type": "VEC3"
    },
    {
      "bufferView": 2,
      "byteOffset": 329472,
      "componentType": 5126,
      "count": 1638,
      "max": [
        0.9830402731895447,
        1.0,
        0.9999898076057434
      ],
      "min": [
        -0.9946505427360535,
        -0.07291707396507263,
        -0.9999884366989136
      ],
      "type": "VEC3"
    },
    {
      "bufferView": 1,
      "byteOffset": 103272,
      "componentType": 5126,
      "count": 1638,
      "max": [
        0.36870598793029785,
        0.2545873522758484
      ],
      "min": [
        0.27345719933509827,
        0.1616009622812271
      ],
      "type": "VEC2"
    },
    {
      "bufferView": 0,
      "byteOffset": 69324,
      "componentType": 5125,
      "count": 2208,
      "type": "SCALAR"
    },
    {
      "bufferView": 2,
      "byteOffset": 349128,
      "componentType": 5126,
      "count": 1654,
      "max": [
        -508.5067138671875,
        1022.7597045898438,
        177.89041137695313
      ],
      "min": [
        -1029.2200927734375,
        0.0,
        -289.3530578613281
      ],
      "type": "VEC3"
    },
    {
      "bufferView": 2,
      "byteOffset": 368976,
      "componentType": 5126,
      "count": 1654,
      "max": [
        0.9858388900756836,
        1.0,
        0.9998219013214111
      ],
      "min": [
        -0.9767069220542908,
        -0.12725314497947693,
        -0.999481201171875
      ],
      "type": "VEC3"
    },
    {
      "bufferView": 1,
      "byteOffset": 116376,
      "componentType": 5126,
      "count": 1654,
      "max": [
        0.36740463972091675,
        0.22079592943191528
      ],
      "min": [
        0.2826085686683655,
        0.12693718075752258
      ],
      "type": "VEC2"
    },
    {
      "bufferView": 0,
      "byteOffset": 78156,
      "componentType": 5125,
      "count": 2220,
      "type": "SCALAR"
    }
  ],
  "asset": {
    "extras": {
      "author": "PolyOne Studio (https://sketchfab.com/polyone)",
      "license": "CC-BY-4.0 (http://creativecommons.org/licenses/by/4.0/)",
      "source": "https://sketchfab.com/3d-models/free-pack-tree-196525a9936a40c1ba7e74ce5c071d59",
      "title": "Free Pack - Tree"
    },
    "generator": "Sketchfab-16.75.0",
    "version": "2.0"
  },
  "bufferViews": [
    {
      "buffer": 0,
      "byteLength": 87036,
      "name": "floatBufferViews",
      "target": 34963
    },
    {
      "buffer": 0,
      "byteLength": 129608,
      "byteOffset": 87036,
      "byteStride": 8,
      "name": "floatBufferViews",
      "target": 34962
    },
    {
      "buffer": 0,
      "byteLength": 388824,
      "byteOffset": 216644,
      "byteStride": 12,
      "name": "floatBufferViews",
      "target": 34962
    }
  ],
  "buffers": [
    {
      "byteLength": 605468,
      "uri": "scene.bin"
    }
  ],
  "images": [
    {
      "uri": "textures/Free_Tree_M_baseColor.png"
    }
  ],
  "materials": [
    {
      "doubleSided": true,
      "name": "Free_Tree_M",
      "pbrMetallicRoughness": {
        "baseColorTexture": {
          "index": 0
        },
        "metallicFactor": 0.0
      }
    }
  ],
  "meshes": [
    {
      "name": "SM_FreeTree_03_Free_Tree_M_0",
      "primitives": [
        {
          "attributes": {
            "NORMAL": 1,
            "POSITION": 0,
            "TEXCOORD_0": 2
          },
          "indices": 3,
          "material": 0,
          "mode": 4
        }
      ]
    },
    {
      "name": "SM_FreeTree_05_Free_Tree_M_0",
      "primitives": [
        {
          "attributes": {
            "NORMAL": 5,
            "POSITION": 4,
            "TEXCOORD_0": 6
          },
          "indices": 7,
          "material": 0,
          "mode": 4
        }
      ]
    },
    {
      "name": "SM_FreeTree_08_Free_Tree_M_0",
      "primitives": [
        {
          "attributes": {
            "NORMAL": 9,
            "POSITION": 8,
            "TEXCOORD_0": 10
          },
          "indices": 11,
          "material": 0,
          "mode": 4
        }
      ]
    },
    {
      "name": "SM_FreeTree_07_Free_Tree_M_0",
      "primitives": [
        {
          "attributes": {
            "NORMAL": 13,
            "POSITION": 12,
            "TEXCOORD_0": 14
          },
          "indices": 15,
          "material": 0,
          "mode": 4
        }
      ]
    },
    {
      "name": "SM_FreeTree_06_Free_Tree_M_0",
      "primitives": [
        {
          "attributes": {
            "NORMAL": 17,
            "POSITION": 16,
            "TEXCOORD_0": 18
          },
          "indices": 19,
          "material": 0,
          "mode": 4
        }
      ]
    },
    {
      "name": "SM_FreeTree_04_Free_Tree_M_0",
      "primitives": [
        {
          "attributes": {
            "NORMAL": 21,
            "POSITION": 20,
            "TEXCOORD_0": 22
          },
          "indices": 23,
          "material": 0,
          "mode": 4
        }
      ]
    },
    {
      "name": "SM_FreeTree_01_Free_Tree_M_0",
      "primitives": [
        {
          "attributes": {
            "NORMAL": 25,
            "POSITION": 24,
            "TEXCOORD_0": 26
          },
          "indices": 27,
          "material": 0,
          "mode": 4
        }
      ]
    },
    {
      "name": "SM_FreeTree_02_Free_Tree_M_0",
      "primitives": [
        {
          "attributes": {
            "NORMAL": 29,
            "POSITION": 28,
            "TEXCOORD_0": 30
          },
          "indices": 31,
          "material": 0,
          "mode": 4
        }
      ]
    }
  ],
  "nodes": [
    {
      "children": [
        1
      ],
      "matrix": [
        1.0,
        0.0,
        0.0,
        0.0,
        0.0,
        2.220446049250313e-16,
        -1.0,
        0.0,
        0.0,
        1.0,
        2.220446049250313e-16,
        0.0,
        0.0,
        0.0,
        0.0,
        1.0
      ],
      "name": "Sketchfab_model"
    },
    {
      "children": [
        2
      ],
      "matrix": [
        0.009999999776482582,
        0.0,
        0.0,
        0.0,
        0.0,
        0.0,
        0.009999999776482582,
        0.0,
        0.0,
        -0.009999999776482582,
        0.0,
        0.0,
        0.0,
        0.0,
        0.0,
        1.0
      ],
      "name": "a1a39a9be1df4576ac1e73878eba1d49.fbx"
    },
    {
      "children": [
        3
      ],
      "name": "RootNode"
    },
    {
      "children": [
        4,
        6,
        8,
        10,
        12,
        14,
        16,
        18
      ],
      "name": "Free_Tree"
    },
    {
      "children": [
        5
      ],
      "name": "SM_FreeTree_03"
    },
    {
      "mesh": 0,
      "name": "SM_FreeTree_03_Free_Tree_M_0"
    },
    {
      "children": [
        7
      ],
      "name": "SM_FreeTree_05"
    },
    {
      "mesh": 1,
      "name": "SM_FreeTree_05_Free_Tree_M_0"
    },
    {
      "children": [
        9
      ],
      "name": "SM_FreeTree_08"
    },
    {
      "mesh": 2,
      "name": "SM_FreeTree_08_Free_Tree_M_0"
    },
    {
      "children": [
        11
      ],
      "name": "SM_FreeTree_07"
    },
    {
      "mesh": 3,
      "name": "SM_FreeTree_07_Free_Tree_M_0"
    },
    {
      "children": [
        13
      ],
      "name": "SM_FreeTree_06"
    },
    {
      "mesh": 4,
      "name": "SM_FreeTree_06_Free_Tree_M_0"
    },
    {
      "children": [
        15
      ],
      "name": "SM_FreeTree_04"
    },
    {
      "mesh": 5,
      "name": "SM_FreeTree_04_Free_Tree_M_0"
    },
    {
      "children": [
        17
      ],
      "name": "SM_FreeTree_01"
    },
    {
      "mesh": 6,
      "name": "SM_FreeTree_01_Free_Tree_M_0"
    },
    {
      "children": [
        19
      ],
      "name": "SM_FreeTree_02"
    },
    {
      "mesh": 7,
      "name": "SM_FreeTree_02_Free_Tree_M_0"
    }
  ],
  "samplers": [
    {
      "magFilter": 9729,
      "minFilter": 9987,
      "wrapS": 10497,
      "wrapT": 10497
    }
  ],
  "scene": 0,
  "scenes": [
    {
      "name": "Sketchfab_Scene",
      "nodes": [
        0
      ]
    }
  ],
  "textures": [
    {
      "sampler": 0,
      "source": 0
    }
  ]
}
