{
  "accessors": [
    {
      "bufferView": 2,
      "componentType": 5126,
      "count": 54,
      "max": [
        -48.87441635131836,
        1725.2921142578125,
        1121.1893310546875
      ],
      "min": [
        -1164.712890625,
        1150.5594482421875,
        -1157.8553466796875
      ],
      "type": "VEC3"
    },
    {
      "bufferView": 2,
      "byteOffset": 648,
      "componentType": 5126,
      "count": 54,
      "max": [
        1.0,
        0.7657086253166199,
        1.0
      ],
      "min": [
        -1.0,
        0.0,
        -1.0
      ],
      "type": "VEC3"
    },
    {
      "bufferView": 3,
      "componentType": 5126,
      "count": 54,
      "max": [
        1.0,
        0.005417712964117527,
        1.0,
        1.0
      ],
      "min": [
        -1.0,
        -0.007704175543040037,
        -1.0,
        1.0
      ],
      "type": "VEC4"
    },
    {
      "bufferView": 1,
      "componentType": 5126,
      "count": 54,
      "max": [
        0.989665687084198,
        0.9935809373855591
      ],
      "min": [
        0.006712883710861206,
        0.0038681626319885254
      ],
      "type": "VEC2"
    },
    {
      "bufferView": 0,
      "componentType": 5125,
      "count": 84,
      "type": "SCALAR"
    },
    {
      "bufferView": 2,
      "byteOffset": 1296,
      "componentType": 5126,
      "count": 1209,
      "max": [
        491.81048583984375,
        1619.2066650390625,
        1122.098876953125
      ],
      "min": [
        -602.3494262695313,
        9.5367431640625e-07,
        -1123.1661376953125
      ],
      "type": "VEC3"
    },
    {
      "bufferView": 2,
      "byteOffset": 15804,
      "componentType": 5126,
      "count": 1209,
      "max": [
        1.0,
        1.0,
        1.0
      ],
      "min": [
        -1.0,
        -1.0,
        -1.0
      ],
      "type": "VEC3"
    },
    {
      "bufferView": 3,
      "byteOffset": 864,
      "componentType": 5126,
      "count": 1209,
      "max": [
        1.0,
        0.043848324567079544,
        1.0,
        1.0
      ],
      "min": [
        -1.0,
        -0.038537971675395966,
        -1.0,
        1.0
      ],
      "type": "VEC4"
    },
    {
      "bufferView": 1,
      "byteOffset": 432,
      "componentType": 5126,
      "count": 1209,
      "max": [
        0.9957624673843384,
        0.9933684468269348
      ],
      "min": [
        0.005554625764489174,
        0.008154958486557007
      ],
      "type": "VEC2"
    },
    {
      "bufferView": 0,
      "byteOffset": 336,
      "componentType": 5125,
      "count": 1833,
      "type": "SCALAR"
    },
    {
      "bufferView": 2,
      "byteOffset": 30312,
      "componentType": 5126,
      "count": 1209,
      "max": [
        491.81048583984375,
        1619.2066650390625,
        1122.098876953125
      ],
      "min": [
        -602.3494262695313,
        9.5367431640625e-07,
        -1123.1661376953125
      ],
      "type": "VEC3"
    },
    {
      "bufferView": 2,
      "byteOffset": 44820,
      "componentType": 5126,
      "count": 1209,
      "max": [
        1.0,
        1.0,
        1.0
      ],
      "min": [
        -1.0,
        -1.0,
        -1.0
      ],
      "type": "VEC3"
    },
    {
      "bufferView": 3,
      "byteOffset": 20208,
      "componentType": 5126,
      "count": 1209,
      "max": [
        1.0,
        0.043848324567079544,
        1.0,
        1.0
      ],
      "min": [
        -1.0,
        -0.038537971675395966,
        -1.0,
        1.0
      ],
      "type": "VEC4"
    },
    {
      "bufferView": 1,
      "byteOffset": 10104,
      "componentType": 5126,
      "count": 1209,
      "max": [
        0.9957624673843384,
        0.9933684468269348
      ],
      "min": [
        0.005554625764489174,
        0.008154958486557007
      ],
      "type": "VEC2"
    },
    {
      "bufferView": 0,
      "byteOffset": 7668,
      "componentType": 5125,
      "count": 1833,
      "type": "SCALAR"
    },
    {
      "bufferView": 2,
      "byteOffset": 59328,
      "componentType": 5126,
      "count": 68,
      "max": [
        120.4498291015625,
        2075.173583984375,
        120.4495849609375
      ],
      "min": [
        -120.4498291015625,
        -100.0,
        -120.4501953125
      ],
      "type": "VEC3"
    },
    {
      "bufferView": 2,
      "byteOffset": 60144,
      "componentType": 5126,
      "count": 68,
      "max": [
        0.9995204210281372,
        0.9997694492340088,
        0.9258235692977905
      ],
      "min": [
        -0.9258243441581726,
        -2.923121428466402e-06,
        -0.9258235096931458
      ],
      "type": "VEC3"
    },
    {
      "bufferView": 3,
      "byteOffset": 39552,
      "componentType": 5126,
      "count": 68,
      "max": [
        0.3597360849380493,
        0.020048826932907104,
        0.46971744298934937,
        1.0
      ],
      "min": [
        -0.354030579328537,
        -1.0,
        -0.9331023693084717,
        1.0
      ],
      "type": "VEC4"
    },
    {
      "bufferView": 1,
      "byteOffset": 19776,
      "componentType": 5126,
      "count": 68,
      "max": [
        0.9950352907180786,
        0.8168724775314331
      ],
      "min": [
        0.40695706009864807,
        0.7288930416107178
      ],
      "type": "VEC2"
    },
    {
      "bufferView": 0,
      "byteOffset": 15000,
      "componentType": 5125,
      "count": 156,
      "type": "SCALAR"
    }
  ],
  "asset": {
    "extras": {
      "author": "Colin.Greenall (https://sketchfab.com/Colin.Greenall)",
      "license": "CC-BY-4.0 (http://creativecommons.org/licenses/by/4.0/)",
      "source": "https://sketchfab.com/3d-models/low-poly-derelict-factory-4e033f90eaaa4e68931af60f0309f537",
      "title": "LOW POLY - DERELICT FACTORY"
    },
    "generator": "Sketchfab-12.59.0",
    "version": "2.0"
  },
  "bufferViews": [
    {
      "buffer": 0,
      "byteLength": 15624,
      "name": "floatBufferViews",
      "target": 34963
    },
    {
      "buffer": 0,
      "byteLength": 20320,
      "byteOffset": 15624,
      "byteStride": 8,
      "name": "floatBufferViews",
      "target": 34962
    },
    {
      "buffer": 0,
      "byteLength": 60960,
      "byteOffset": 35944,
      "byteStride": 12,
      "name": "floatBufferViews",
      "target": 34962
    },
    {
      "buffer": 0,
      "byteLength": 40640,
      "byteOffset": 96904,
      "byteStride": 16,
      "name": "floatBufferViews",
      "target": 34962
    }
  ],
  "buffers": [
    {
      "byteLength": 137544,
      "uri": "scene.bin"
    }
  ],
  "images": [
    {
      "uri": "textures/lambert1_baseColor.png"
    },
    {
      "uri": "textures/lambert1_metallicRoughness.png"
    },
    {
      "uri": "textures/lambert1_normal.png"
    }
  ],
  "materials": [
    {
      "doubleSided": true,
      "name": "lambert1",
      "normalTexture": {
        "index": 2
      },
      "pbrMetallicRoughness": {
        "baseColorTexture": {
          "index": 0
        },
        "metallicRoughnessTexture": {
          "index": 1
        }
      }
    }
  ],
  "meshes": [
    {
      "name": "FACTORY9_lambert1_0",
      "primitives": [
        {
          "attributes": {
            "NORMAL": 1,
            "POSITION": 0,
            "TANGENT": 2,
            "TEXCOORD_0": 3
          },
          "indices": 4,
          "material": 0,
          "mode": 4
        }
      ]
    },
    {
      "name": "FACTORY10_lambert1_0",
      "primitives": [
        {
          "attributes": {
            "NORMAL": 6,
            "POSITION": 5,
            "TANGENT": 7,
            "TEXCOORD_0": 8
          },
          "indices": 9,
          "material": 0,
          "mode": 4
        }
      ]
    },
    {
      "name": "FACTORY11_lambert1_0",
      "primitives": [
        {
          "attributes": {
            "NORMAL": 11,
            "POSITION": 10,
            "TANGENT": 12,
            "TEXCOORD_0": 13
          },
          "indices": 14,
          "material": 0,
          "mode": 4
        }
      ]
    },
    {
      "name": "pCylinder1_lambert1_0",
      "primitives": [
        {
          "attributes": {
            "NORMAL": 16,
            "POSITION": 15,
            "TANGENT": 17,
            "TEXCOORD_0": 18
          },
          "indices": 19,
          "material": 0,
          "mode": 4
        }
      ]
    }
  ],
  "nodes": [
    {
      "children": [
        1
      ],
      "matrix": [
        1.0,
        0.0,
        0.0,
        0.0,
        0.0,
        2.220446049250313e-16,
        -1.0,
        0.0,
        0.0,
        1.0,
        2.220446049250313e-16,
        0.0,
        0.0,
        0.0,
        0.0,
        1.0
      ],
      "name": "Sketchfab_model"
    },
    {
      "children": [
        2
      ],
      "matrix": [
        1.0,
        0.0,
        0.0,
        0.0,
        0.0,
        0.0,
        1.0,
        0.0,
        0.0,
        -1.0,
        0.0,
        0.0,
        0.0,
        0.0,
        0.0,
        1.0
      ],
      "name": "b268aaa8aa0a415d8fc178451d4886b4.fbx"
    },
    {
      "children": [
        3,
        5,
        7,
        9
      ],
      "name": "RootNode"
    },
    {
      "children": [
        4
      ],
      "matrix": [
        0.009999999776482582,
        0.0,
        0.0,
        0.0,
        0.0,
        0.009999999776482582,
        0.0,
        0.0,
        0.0,
        0.0,
        0.009999999776482582,
        0.0,
        5.515244960784912,
        -1.1368683772161603e-13,
        0.17799414694309235,
        1.0
      ],
      "name": "FACTORY9"
    },
    {
      "mesh": 0,
      "name": "FACTORY9_lambert1_0"
    },
    {
      "children": [
        6
      ],
      "matrix": [
        0.009999999776482582,
        0.0,
        0.0,
        0.0,
        0.0,
        0.009999999776482582,
        0.0,
        0.0,
        0.0,
        0.0,
        0.009999999776482582,
        0.0,
        0.0,
        0.0,
        0.0,
        1.0
      ],
      "name": "FACTORY10"
    },
    {
      "mesh": 1,
      "name": "FACTORY10_lambert1_0"
    },
    {
      "children": [
        8
      ],
      "matrix": [
        -0.009999999776482582,
        1.224646771774364e-18,
        -1.2246467717743643e-18,
        0.0,
        1.224646771774364e-18,
        0.009999999776482582,
        1.224646771774364e-18,
        0.0,
        1.2246467717743643e-18,
        1.224646771774364e-18,
        -0.009999999776482582,
        0.0,
        -1.1053887605667114,
        0.0,
        -0.01067307312041521,
        1.0
      ],
      "name": "FACTORY11"
    },
    {
      "mesh": 2,
      "name": "FACTORY11_lambert1_0"
    },
    {
      "children": [
        10
      ],
      "matrix": [
        0.009271838338426118,
        0.0,
        -0.003746065850428058,
        0.0,
        0.0,
        0.009999999776482582,
        0.0,
        0.0,
        0.003746065850428058,
        0.0,
        0.009271838338426118,
        0.0,
        11.433270454406738,
        1.0,
        -7.862288475036621,
        1.0
      ],
      "name": "pCylinder1"
    },
    {
      "mesh": 3,
      "name": "pCylinder1_lambert1_0"
    }
  ],
  "samplers": [
    {
      "magFilter": 9729,
      "minFilter": 9987,
      "wrapS": 10497,
      "wrapT": 10497
    }
  ],
  "scene": 0,
  "scenes": [
    {
      "name": "Sketchfab_Scene",
      "nodes": [
        0
      ]
    }
  ],
  "textures": [
    {
      "sampler": 0,
      "source": 0
    },
    {
      "sampler": 0,
      "source": 1
    },
    {
      "sampler": 0,
      "source": 2
    }
  ]
}
